<svg width="25" height="28" viewBox="0 0 25 28" fill="none" xmlns="http://www.w3.org/2000/svg">
<line x1="0.5" x2="0.5" y2="4" stroke="black"/>
<line x1="24.5" x2="24.5" y2="4" stroke="black"/>
<line x1="24.5" y1="7" x2="24.5" y2="12" stroke="black"/>
<line x1="0.5" y1="7" x2="0.5" y2="12" stroke="black"/>
<line x1="24.5" y1="15" x2="24.5" y2="20" stroke="black"/>
<line x1="0.5" y1="15" x2="0.5" y2="20" stroke="black"/>
<line x1="24.5" y1="23" x2="24.5" y2="27" stroke="black"/>
<line x1="0.5" y1="23" x2="0.5" y2="27" stroke="black"/>
<line y1="27.5" x2="5" y2="27.5" stroke="black"/>
<line x1="1" y1="0.5" x2="24" y2="0.5" stroke="black"/>
<line x1="20" y1="27.5" x2="25" y2="27.5" stroke="black"/>
<path d="M12.5 20.3023L12.5 12.6124C12.5 12.6124 12.5 10.4038 12.5 8.95948C12.5 8.41072 12.5 7.5 12.5 7.5L11.2665 7.52625L10.2429 7.62422L8.12279 7.89368C6.96222 8.0774 5.94088 8.27694 5.71097 8.44693C5.48106 8.61692 4.08703 12.1822 4.08703 12.1822L4.00414 13.5121C3.13137 13.997 2.39938 14.7685 2.27013 15.7585C2.25025 15.9108 2.23838 16.0624 2.23866 16.2066C2.24029 17.0518 2.23806 18.1502 2.23806 18.1502C2.23806 18.3729 2.31679 20.276 3.81278 20.276C4.02274 20.276 5.59746 20.276 5.59746 20.276L12.5 20.3023ZM5.85992 18.2289C5.5277 18.2289 5.20295 18.1304 4.92672 17.9458C4.6505 17.7613 4.43521 17.4989 4.30807 17.192C4.18094 16.8851 4.14768 16.5473 4.21249 16.2215C4.2773 15.8957 4.43728 15.5964 4.67219 15.3615C4.9071 15.1266 5.20639 14.9666 5.53222 14.9018C5.85805 14.837 6.19579 14.8702 6.50271 14.9974C6.80964 15.1245 7.07197 15.3398 7.25654 15.616C7.44111 15.8922 7.53962 16.217 7.53962 16.5492C7.53962 16.9947 7.36265 17.4219 7.04765 17.7369C6.73264 18.0519 6.3054 18.2289 5.85992 18.2289ZM5.85434 12.6124C5.27559 12.59 6.47074 9.82734 6.59434 9.72746C6.71794 9.62757 7.20861 9.45742 7.85897 9.35243C8.50933 9.24745 10.3376 9.05401 10.3376 9.05401C10.3376 9.05401 10.929 9.00984 11.3085 8.99184C11.7735 8.96978 11.9103 8.95948 12.5 8.95948C12.5 10.4038 12.5 12.6124 12.5 12.6124C12.5 12.6124 6.43308 12.6348 5.85434 12.6124Z" fill="#2C1414"/>
<path d="M2.41434 11.8543C2.86515 11.8543 4.52218 11.8543 4.52218 11.8543L4.00414 13.9265C4.00414 13.9265 3.19968 13.9265 2.65793 13.9265C2.11618 13.9265 1.62116 12.0615 2.41434 11.8543Z" fill="#2C1414"/>
<path d="M3.48991 20.1521H6.67533C6.67533 20.1521 6.72456 21.1546 6.61481 21.5984C6.50507 22.0421 5.08262 21.9895 5.08262 21.9895C5.08262 21.9895 3.66017 22.0421 3.55043 21.5984C3.44069 21.1546 3.48991 20.1521 3.48991 20.1521Z" fill="#2C1414"/>
<path d="M12.5 20.3023L12.5 12.6124C12.5 12.6124 12.5 10.4038 12.5 8.95948C12.5 8.41072 12.5 7.5 12.5 7.5L13.7335 7.52625L14.7571 7.62422L16.8772 7.89368C18.0378 8.0774 19.0591 8.27694 19.289 8.44693C19.5189 8.61692 20.913 12.1822 20.913 12.1822L20.9959 13.5121C21.8686 13.997 22.6006 14.7685 22.7299 15.7585C22.7498 15.9108 22.7616 16.0624 22.7613 16.2066C22.7597 17.0518 22.7619 18.1502 22.7619 18.1502C22.7619 18.3729 22.6832 20.276 21.1872 20.276C20.9773 20.276 19.4025 20.276 19.4025 20.276L12.5 20.3023ZM19.1401 18.2289C19.4723 18.2289 19.7971 18.1304 20.0733 17.9458C20.3495 17.7613 20.5648 17.4989 20.6919 17.192C20.8191 16.8851 20.8523 16.5473 20.7875 16.2215C20.7227 15.8957 20.5627 15.5964 20.3278 15.3615C20.0929 15.1266 19.7936 14.9666 19.4678 14.9018C19.1419 14.837 18.8042 14.8702 18.4973 14.9974C18.1904 15.1245 17.928 15.3398 17.7435 15.616C17.5589 15.8922 17.4604 16.217 17.4604 16.5492C17.4604 16.9947 17.6373 17.4219 17.9524 17.7369C18.2674 18.0519 18.6946 18.2289 19.1401 18.2289ZM19.1457 12.6124C19.7244 12.59 18.5293 9.82734 18.4057 9.72746C18.2821 9.62757 17.7914 9.45742 17.141 9.35243C16.4907 9.24745 14.6624 9.05401 14.6624 9.05401C14.6624 9.05401 14.071 9.00984 13.6915 8.99184C13.2265 8.96978 13.0897 8.95948 12.5 8.95948C12.5 10.4038 12.5 12.6124 12.5 12.6124C12.5 12.6124 18.5669 12.6348 19.1457 12.6124Z" fill="#2C1414"/>
<path d="M22.5857 11.8543C22.1349 11.8543 20.4778 11.8543 20.4778 11.8543L20.9959 13.9265C20.9959 13.9265 21.8003 13.9265 22.3421 13.9265C22.8838 13.9265 23.3788 12.0615 22.5857 11.8543Z" fill="#2C1414"/>
<path d="M21.5101 20.1521H18.3247C18.3247 20.1521 18.2754 21.1546 18.3852 21.5984C18.4949 22.0421 19.9174 21.9895 19.9174 21.9895C19.9174 21.9895 21.3398 22.0421 21.4496 21.5984C21.5593 21.1546 21.5101 20.1521 21.5101 20.1521Z" fill="#2C1414"/>
</svg>
