<svg width="25" height="25" viewBox="0 0 25 25" fill="none" xmlns="http://www.w3.org/2000/svg">
<path d="M22.1154 25H2.88462C2.11981 24.9992 1.38656 24.695 0.845763 24.1542C0.304965 23.6134 0.000795428 22.8802 0 22.1154V2.88462C0.000795428 2.11981 0.304965 1.38656 0.845763 0.845763C1.38656 0.304965 2.11981 0.000795428 2.88462 0H22.1154C22.8802 0.000795428 23.6134 0.304965 24.1542 0.845763C24.695 1.38656 24.9992 2.11981 25 2.88462V22.1154C24.9992 22.8802 24.695 23.6134 24.1542 24.1542C23.6134 24.695 22.8802 24.9992 22.1154 25Z" fill="black"/>
<line x1="2" y1="22.5" x2="23" y2="22.5" stroke="#888888"/>
<path d="M5 20H20" stroke="#47F4FF"/>
</svg>
