<svg width="25" height="25" viewBox="0 0 25 25" fill="none" xmlns="http://www.w3.org/2000/svg">
<path d="M24.1071 25H0.892911C0.738237 25 0.586214 24.9567 0.451735 24.8745C0.317257 24.7922 0.204937 24.6737 0.12578 24.5305C0.0466236 24.3874 0.00334554 24.2246 0.000186303 24.0581C-0.00297293 23.8916 0.0340951 23.727 0.107759 23.5805L11.7148 0.503719C11.7914 0.351371 11.9048 0.22414 12.043 0.135473C12.1812 0.046807 12.3391 0 12.5 0C12.6609 0 12.8188 0.046807 12.957 0.135473C13.0952 0.22414 13.2086 0.351371 13.2852 0.503719L24.8922 23.5805C24.9659 23.727 25.003 23.8916 24.9998 24.0581C24.9967 24.2246 24.9534 24.3874 24.8742 24.5305C24.7951 24.6737 24.6827 24.7922 24.5483 24.8745C24.4138 24.9567 24.2618 25 24.1071 25Z" fill="black"/>
<line x1="8" y1="24" x2="8" y2="12" stroke="#A5FFAE"/>
<line x1="10.5" y1="24" x2="10.5" y2="8" stroke="#AAAAAA"/>
</svg>
